<?xml version="1.0" encoding="UTF-8" standalone="no"?>
<!DOCTYPE svg PUBLIC "-//W3C//DTD SVG 1.1//EN" "http://www.w3.org/Graphics/SVG/1.1/DTD/svg11.dtd">
<svg width="100%" height="100%" viewBox="0 0 3840 2160" version="1.1" xmlns="http://www.w3.org/2000/svg" xmlns:xlink="http://www.w3.org/1999/xlink" xml:space="preserve" xmlns:serif="http://www.serif.com/" style="fill-rule:evenodd;clip-rule:evenodd;stroke-linecap:round;stroke-linejoin:round;stroke-miterlimit:1.5;">
    <rect id="Artboard1" x="0" y="0" width="3840" height="2160" style="fill:url(#_Linear1);"/>
    <clipPath id="_clip2">
        <rect id="Artboard11" serif:id="Artboard1" x="0" y="0" width="3840" height="2160"/>
    </clipPath>
    <g clip-path="url(#_clip2)">
        <g transform="matrix(3.94828,0,0,3.94828,-5726,-3920.92)">
            <path d="M2054.72,-308.461L2077.3,-306.981L1964.73,1410.52L2300.51,-277.594L2322.7,-273.18L1986.92,1414.93L2540.18,-214.909L2561.6,-207.636L2008.34,1422.2L2769.6,-121.478L2789.9,-111.471L2028.64,1432.21L2984.88,1.1L3003.69,13.67L2047.45,1444.78L3182.31,150.728L3199.32,165.646L2064.46,1459.7L3358.51,324.845L3373.43,341.856L2079.38,1476.71L3510.49,520.473L3523.06,539.286L2091.95,1495.53L3635.63,734.264L3645.64,754.557L2101.96,1515.82L3731.8,962.561L3739.07,983.986L2109.23,1537.24L3797.34,1201.46L3801.76,1223.65L2113.64,1559.43L3831.14,1446.86L3832.62,1469.44L2115.12,1582.01L3832.62,1694.58L3831.14,1717.16L2113.64,1604.59L3801.76,1940.37L3797.34,1962.57L2109.23,1626.78L3739.07,2180.04L3731.8,2201.46L2101.96,1648.2L3645.64,2409.47L3635.63,2429.76L2091.95,1668.5L3523.06,2624.74L3510.49,2643.55L2079.38,1687.31L3373.43,2822.16L3358.51,2839.18L2064.46,1704.32L3199.32,2998.38L3182.31,3013.29L2047.45,1719.24L3003.69,3150.35L2984.88,3162.92L2028.64,1731.81L2789.9,3275.49L2769.6,3285.5L2008.34,1741.82L2561.6,3371.66L2540.18,3378.93L1986.92,1749.09L2322.7,3437.2L2300.51,3441.62L1964.73,1753.5L2077.3,3471L2054.72,3472.48L1942.15,1754.98L1829.58,3472.48L1807,3471L1919.57,1753.5L1583.79,3441.62L1561.6,3437.2L1897.38,1749.09L1344.12,3378.93L1322.7,3371.66L1875.96,1741.82L1114.7,3285.5L1094.4,3275.49L1855.66,1731.81L899.426,3162.92L880.613,3150.35L1836.85,1719.24L701.996,3013.29L684.985,2998.38L1819.84,1704.32L525.786,2839.18L510.868,2822.16L1804.92,1687.31L373.81,2643.55L361.24,2624.74L1792.35,1668.5L248.669,2429.76L238.662,2409.47L1782.35,1648.2L152.504,2201.46L145.231,2180.04L1775.07,1626.78L86.96,1962.57L82.546,1940.37L1770.66,1604.59L53.159,1717.16L51.679,1694.58L1769.18,1582.01L51.679,1469.44L53.159,1446.86L1770.66,1559.43L82.546,1223.65L86.96,1201.46L1775.07,1537.24L145.231,983.986L152.504,962.561L1782.35,1515.82L238.662,754.557L248.669,734.264L1792.35,1495.53L361.24,539.286L373.81,520.473L1804.92,1476.71L510.868,341.856L525.786,324.845L1819.84,1459.7L684.985,165.646L701.996,150.728L1836.85,1444.78L880.613,13.67L899.426,1.1L1855.66,1432.21L1094.4,-111.471L1114.7,-121.478L1875.96,1422.2L1322.7,-207.636L1344.12,-214.909L1897.38,1414.93L1561.6,-273.18L1583.79,-277.594L1919.57,1410.52L1807,-306.981L1829.58,-308.461L1942.15,1409.04L2054.72,-308.461Z" style="fill:white;fill-opacity:0.1;"/>
        </g>
        <g id="Hills">
            <g transform="matrix(2.38228,0,0,2.6108,-1646.98,-767.59)">
                <ellipse cx="915.5" cy="1497" rx="1004.5" ry="720" style="fill:rgb(0,131,47);"/>
                <clipPath id="_clip3">
                    <ellipse cx="915.5" cy="1497" rx="1004.5" ry="720"/>
                </clipPath>
                <g clip-path="url(#_clip3)">
                    <g transform="matrix(0.498582,0,0,0.383025,552.045,294.006)">
                        <path d="M1668.91,2004.73C483.807,1843.25 363.096,1427.09 1422.58,1336.27L1471.08,1268.42C196.522,1377.67 341.737,1878.32 1767.42,2072.58L1668.91,2004.73Z" style="fill:rgb(255,241,151);fill-opacity:0.9;"/>
                    </g>
                </g>
            </g>
            <g transform="matrix(2.38228,0,0,2.6108,1533.02,-948.59)">
                <ellipse cx="915.5" cy="1497" rx="1004.5" ry="720" style="fill:rgb(0,190,47);"/>
                <clipPath id="_clip4">
                    <ellipse cx="915.5" cy="1497" rx="1004.5" ry="720"/>
                </clipPath>
                <g clip-path="url(#_clip4)">
                    <g transform="matrix(0.415144,0,0,0.467858,-614.231,195.983)">
                        <path d="M2706.03,2240.48C2715.82,2231.68 2692.15,2217.82 2682.85,2208.51C2609.14,2134.8 2513.95,2052.96 2405.77,2036.95C2226.02,2010.34 1861.48,2029.64 1774.7,1856.12C1773.07,1852.85 1763.62,1838.27 1760.41,1838.27L1836.64,1757.2C1839.85,1757.2 1849.3,1771.78 1850.93,1775.05C1937.71,1948.57 2302.25,1929.27 2482,1955.88C2590.18,1971.89 2685.37,2053.73 2759.08,2127.44C2768.38,2136.74 2792.05,2150.61 2782.26,2159.41C2777.47,2163.72 2701.24,2244.79 2706.03,2240.48Z" style="fill:rgb(255,241,151);"/>
                    </g>
                </g>
            </g>
        </g>
        <g id="Plane" transform="matrix(1,0,0,1,292.573,33.9451)">
            <g transform="matrix(-0.807715,0,0,0.807715,1056.62,274.284)">
                <path d="M407.55,242.19C407.55,243.08 407.4,243.65 407.09,244.13C406.79,244.62 406.33,245.01 405.72,245.56C405.72,245.56 404.45,245.81 404.45,245.82C404.27,245.86 402.56,246.14 399.98,247.09C397.93,247.83 397.16,247.98 395.76,249.01C395.12,249.38 394.18,250.02 393.26,250.69C392.34,251.35 391.44,252.03 390.91,252.49C390.9,252.49 390.08,253.06 389.25,253.62C388.42,254.18 387.6,254.75 387.59,254.75C382.07,259.43 382.91,256.38 381.89,263.68C380.91,270.74 383.15,284.07 383.31,284.99L383.31,285.01C385.02,288.73 385.97,292.86 385.97,297.22C385.97,305.94 382.16,313.77 376.11,319.13C376.11,319.13 376.62,325.6 376.11,328.49C375.59,331.38 372.02,332.5 372.02,332.5C372.02,332.5 367.93,333.52 363.85,330.45C361.83,328.94 360.69,327.43 360.05,326.29C358.68,326.46 357.29,326.52 355.87,326.47C354.99,327.78 353.68,329.43 352.11,330.45C349.17,332.37 348.02,331.99 345.85,332.66C343.68,333.33 342.02,332.75 340.11,330.71C338.19,328.67 338.32,327.01 337.93,323.69C337.76,322.23 337.92,320.87 338.15,319.8C331.76,314.52 327.61,306.6 327.43,297.84C327.35,293.86 328.06,290.05 329.42,286.57L329.48,286.45C329.64,286.1 330.16,284.96 330.92,283.34C330.92,283.33 330.92,283.33 330.93,283.32C333.68,277.38 339.45,264.93 341.72,260.11C342.92,257.56 344.01,254.92 344.9,252.65C346.18,249.38 346.28,249.13 346.36,248.88C346.37,248.87 346.99,246.79 347.93,245.63C348.58,244.82 349.33,244.08 350.14,243.43L351.08,242.38C350.18,241.47 349.07,239.86 349.42,237.77C349.68,236.24 351.78,233.37 352.29,233.11C353.33,232.58 355.46,232.03 356.57,232.54C358.16,233.26 359.69,234.9 360.62,236.04C361.48,235.65 362.4,235.38 363.34,235.23C365.63,234.87 369.6,234.32 374.74,233.9C377.04,233.72 379.05,233.37 380.84,233.25C388.92,232.7 392.2,233.9 392.2,233.9L392.21,233.9L401.55,236.19C404.86,236.19 407.55,238.88 407.55,242.19Z" style="fill:rgb(167,169,172);fill-rule:nonzero;"/>
                <path d="M341.17,261.13C341.17,261.13 355.21,273.4 360.83,276.08C366.45,278.75 371.81,280.76 375.64,280.9C379.47,281.04 383.05,280.53 383.05,280.53C383.05,280.53 383.03,282.82 383.61,284.2C384.2,285.59 385.56,289.86 385.72,290.78C385.89,291.7 386.19,294.31 386.19,294.31C386.19,294.31 366.35,290.78 362.05,288.63C358.28,286.75 347.43,275.05 345.64,272.35C343.85,269.65 339.97,263.69 339.97,263.69L341.17,261.13Z" style="fill:rgb(35,31,32);fill-rule:nonzero;"/>
                <path d="M341.95,259.31C341.95,259.31 354.18,269.05 359.68,271.87C364.91,274.55 368.36,276.15 372.36,276.55C376.43,276.96 382.68,277.72 382.68,277.72L382.97,279.97C382.97,279.97 373.79,279.58 369.06,278.29C364.43,277.02 348.68,266.57 345.83,264.32C343.15,262.21 341.13,261.12 341.13,261.12L341.95,259.31Z" style="fill:white;fill-rule:nonzero;"/>
                <path d="M339.54,264.62C339.54,264.62 341.93,269.91 347.21,276.08C352.49,282.24 358.44,287.9 360.32,288.65C362.19,289.4 365.94,291.69 370.19,292.71C374.45,293.73 376.02,293.97 379.25,294.32C382.48,294.68 383.87,295 385.12,294.99C386.37,294.98 386.26,294.99 386.26,294.99L386.18,298.59C386.18,298.59 371.2,297.45 366.44,294.99C361.67,292.54 354.01,287.69 351.72,284.96C349.42,282.24 346.26,278.38 344.66,276.08C343.05,273.78 340.26,268.11 339.54,267.13C338.82,266.15 338.97,265.84 338.97,265.84L339.54,264.62Z" style="fill:white;fill-rule:nonzero;"/>
                <path d="M336.803,285.94C341.917,283.448 344.581,278.388 342.754,274.64C340.926,270.892 335.3,269.874 330.186,272.367C325.073,274.86 322.409,279.919 324.236,283.667C326.063,287.415 331.69,288.433 336.803,285.94Z" style="fill:rgb(188,190,192);fill-rule:nonzero;"/>
                <path d="M327.429,297.66C327.429,297.66 327.349,303.15 328.949,306.64C330.059,309.07 331.929,312.83 332.749,313.95C333.569,315.07 336.079,317.96 336.839,318.64C337.599,319.32 337.589,319.4 338.969,320.47C340.329,321.53 342.759,323.27 344.839,324.09C346.579,324.77 350.629,325.62 350.629,325.62C350.629,325.62 355.139,326.6 355.399,326.51C355.659,326.42 359.809,326.46 360.069,326.29C360.329,326.12 367.889,320.77 367.889,320.77L359.529,321.92C359.529,321.92 356.549,321.97 355.529,321.88C354.129,321.75 352.419,321.41 350.679,320.82C348.259,320 343.339,318.09 341.139,316.31C338.789,314.4 334.539,310.5 333.509,308.82C330.989,304.7 327.429,297.66 327.429,297.66Z" style="fill:rgb(147,149,152);fill-rule:nonzero;"/>
                <path d="M338.15,319.8C338.15,319.8 337.46,319.91 337.93,323.69C338.4,327.47 338.31,326.98 338.31,326.98C338.31,326.98 338.73,329.03 339.42,329.87C340.11,330.71 341.509,332.06 342.089,332.34C342.669,332.62 343.8,332.9 343.8,332.9C343.8,332.9 345.219,332.83 345.849,332.66C346.479,332.49 345.89,332.77 345.17,331.79C344.45,330.81 344.49,331.02 344,329.94C343.51,328.86 342.47,327.05 342.4,326.26C342.33,325.47 342.93,322.83 342.93,322.83L338.15,319.8Z" style="fill:rgb(147,149,152);fill-rule:nonzero;"/>
                <path d="M366.05,246.02C367.265,246.02 368.25,245.035 368.25,243.82C368.25,242.605 367.265,241.62 366.05,241.62C364.835,241.62 363.85,242.605 363.85,243.82C363.85,245.035 364.835,246.02 366.05,246.02Z" style="fill:rgb(35,31,32);fill-rule:nonzero;"/>
            </g>
            <g>
                <path d="M949.551,510.878L1019.82,510.878L1084.58,446.119L1084.58,554.902L1019.82,510.878" style="fill:none;stroke:rgb(102,102,102);stroke-width:6px;"/>
                <g>
                    <g transform="matrix(0.945519,0,0,1.05354,30.3405,-26.0213)">
                        <ellipse cx="563.578" cy="481.418" rx="4.86" ry="27.824" style="fill:rgb(86,90,91);"/>
                    </g>
                    <g transform="matrix(0.945519,0,0,1.05354,30.3405,44.6516)">
                        <ellipse cx="563.578" cy="481.418" rx="4.86" ry="27.824" style="fill:rgb(86,90,91);"/>
                    </g>
                    <path d="M559.342,506.43L582.236,506.43L582.236,528.717L559.342,528.717C552.286,528.717 546.558,523.723 546.558,517.573C546.558,511.423 552.286,506.43 559.342,506.43Z" style="fill:rgb(64,63,68);"/>
                </g>
                <path d="M579,480L615.066,481.283L612.888,552.711L583,552.553C578.892,553.596 576.005,549.023 576,543L571.194,489C571.229,483.671 573.348,480.233 579,480Z" style="fill:rgb(60,37,21);"/>
                <path d="M860,490C882.457,483.82 895.472,471.757 902.027,455.669C919.19,411.303 955.951,441.273 956.833,467.595C957.354,483.125 957.689,498.495 948.82,512.758L860,490Z" style="fill:rgb(255,49,49);"/>
                <path d="M612.888,552.711L615.066,481.283L735.228,485.56C752.751,500.359 771.571,501.566 791.773,487.572L860,490C882.717,489.425 902.689,492.655 919.722,497.867C951.785,505.308 964.524,512.97 923.438,525.032C876.081,543.585 825.459,552.678 772,553.553L612.888,552.711Z" style="fill:rgb(255,101,101);"/>
                <g>
                    <g transform="matrix(1.07918,0,0.158184,0.998736,-123.459,0.66831)">
                        <rect x="645.741" y="455.577" width="6.999" height="73.178" style="fill:rgb(141,150,159);"/>
                    </g>
                    <g transform="matrix(1.07918,0,0.165756,1.04654,-86.7053,-21.1116)">
                        <rect x="645.741" y="455.577" width="6.999" height="73.178" style="fill:rgb(141,150,159);"/>
                    </g>
                </g>
                <g>
                    <path d="M640.23,443.928L668.284,443.78C691.134,444.062 713.064,448.364 727.692,454.701C729.31,455.403 729.195,456.747 727.574,456.72C688.178,456.059 638.627,456.901 629.246,453.695C619.06,450.806 620.187,448.262 632.436,444.895L640.23,443.928Z" style="fill:rgb(255,49,49);"/>
                    <g transform="matrix(1,0,0,1,10.0827,84.9749)">
                        <path d="M640.23,443.928L668.284,443.78C691.134,444.062 713.064,448.364 727.692,454.701C729.31,455.403 729.195,456.747 727.574,456.72C688.178,456.059 638.627,456.901 629.246,453.695C619.06,450.806 620.187,448.262 632.436,444.895L640.23,443.928Z" style="fill:rgb(255,53,53);"/>
                    </g>
                </g>
            </g>
            <g transform="matrix(1,0,0,1,-311,8)">
                <g transform="matrix(1,0,0,0.485844,353.114,153.828)">
                    <path d="M2710.17,1028.67C2714.55,1033.05 2671.73,1052.54 2666.4,1054.84C2498.52,1127.37 2351.74,1150.78 2168.36,1137.68C1804.47,1111.69 1362.42,925.74 1039.29,1176.49L1039.29,211.721C1362.42,-39.025 1804.47,146.929 2168.36,172.92C2351.74,186.018 2445.96,193.079 2613.84,120.553C2619.17,118.25 2661.99,98.765 2657.61,94.383L2710.17,1028.67Z" style="fill:rgb(255,122,122);"/>
                </g>
                <g transform="matrix(1,0,0,1,353.114,-515.298)">
                    <g transform="matrix(0.992855,-0.119325,0.119325,0.992855,-118.072,147.169)">
                        <g transform="matrix(247,0,0,247,1169.91,1059.55)">
                            <path d="M0.378,-0.651L0.53,-0L0.57,-0L0.739,-0.699L0.705,-0.699L0.551,-0.038L0.397,-0.699L0.359,-0.699L0.208,-0.041L0.053,-0.699L0.017,-0.699L0.188,-0L0.228,-0L0.378,-0.651Z" style="fill:rgb(242,242,242);fill-rule:nonzero;"/>
                        </g>
                    </g>
                    <g transform="matrix(0.999893,-0.014633,0.014633,0.999893,-15.053,20.1279)">
                        <g transform="matrix(247,0,0,247,1367.92,1038.72)">
                            <path d="M0.08,-0L0.429,-0L0.429,-0.029L0.112,-0.029L0.112,-0.353L0.386,-0.353L0.386,-0.381L0.112,-0.381L0.112,-0.67L0.426,-0.67L0.426,-0.699L0.08,-0.699L0.08,-0Z" style="fill:rgb(242,242,242);fill-rule:nonzero;"/>
                        </g>
                    </g>
                    <g transform="matrix(0.999289,0.0376956,-0.0376956,0.999289,40.15,-55.5593)">
                        <g transform="matrix(247,0,0,247,1493.44,1036.95)">
                            <path d="M0.08,-0.704L0.08,0.003L0.276,0.003C0.452,0.003 0.481,-0.066 0.481,-0.19C0.481,-0.28 0.451,-0.348 0.363,-0.37C0.444,-0.39 0.465,-0.451 0.465,-0.534C0.465,-0.63 0.427,-0.704 0.277,-0.704L0.08,-0.704ZM0.112,-0.675L0.276,-0.675C0.391,-0.675 0.433,-0.628 0.433,-0.533C0.433,-0.431 0.395,-0.383 0.292,-0.384L0.112,-0.385L0.112,-0.675ZM0.112,-0.356L0.292,-0.356C0.397,-0.356 0.449,-0.301 0.449,-0.191C0.449,-0.068 0.413,-0.025 0.276,-0.025L0.112,-0.025L0.112,-0.356Z" style="fill:rgb(242,242,242);fill-rule:nonzero;"/>
                        </g>
                    </g>
                    <g transform="matrix(0.997998,0.0632387,-0.0632387,0.997998,69.2222,-101.238)">
                        <g transform="matrix(247,0,0,247,1633.9,1042.9)">
                            <path d="M0.215,-0.254L0.215,-0.699L0.183,-0.699L0.183,-0.254C0.183,-0.079 0.164,-0.031 0.042,-0.031L0.002,-0.031L0.002,-0L0.042,-0C0.194,-0 0.215,-0.06 0.215,-0.254Z" style="fill:rgb(242,242,242);fill-rule:nonzero;"/>
                        </g>
                    </g>
                    <g transform="matrix(0.996754,0.0805023,-0.0805023,0.996754,89.8988,-134.302)">
                        <g transform="matrix(247,0,0,247,1710.54,1047.76)">
                            <path d="M0.016,-0L0.051,-0L0.117,-0.208L0.403,-0.208L0.469,-0L0.504,-0L0.278,-0.699L0.242,-0.699L0.016,-0ZM0.126,-0.237L0.26,-0.659L0.394,-0.237L0.126,-0.237Z" style="fill:rgb(242,242,242);fill-rule:nonzero;"/>
                        </g>
                    </g>
                    <g transform="matrix(0.996565,0.0828115,-0.0828115,0.996565,94.097,-149.667)">
                        <g transform="matrix(247,0,0,247,1851.27,1059.49)">
                            <path d="M0.08,-0L0.111,-0L0.109,-0.67L0.341,-0L0.374,-0L0.611,-0.667L0.609,-0L0.64,-0L0.641,-0.699L0.588,-0.699L0.358,-0.039L0.132,-0.699L0.08,-0.699L0.08,-0Z" style="fill:rgb(242,242,242);fill-rule:nonzero;"/>
                        </g>
                    </g>
                    <g transform="matrix(0.999134,0.04162,-0.04162,0.999134,46.7189,-86.4256)">
                        <g transform="matrix(247,0,0,247,2099,1078.81)">
                            <path d="M0.027,-0.003L0.379,-0.003L0.379,-0.033L0.06,-0.032C0.097,-0.072 0.176,-0.159 0.216,-0.207C0.301,-0.315 0.371,-0.411 0.371,-0.536C0.371,-0.644 0.314,-0.709 0.201,-0.709C0.096,-0.709 0.029,-0.642 0.029,-0.518L0.061,-0.518C0.061,-0.628 0.119,-0.679 0.201,-0.679C0.29,-0.679 0.338,-0.63 0.338,-0.534C0.338,-0.42 0.274,-0.327 0.188,-0.222C0.103,-0.118 0.027,-0.042 0.027,-0.042L0.027,-0.003Z" style="fill:rgb(242,242,242);fill-rule:nonzero;"/>
                        </g>
                    </g>
                    <g transform="matrix(0.999967,-0.00816795,0.00816795,0.999967,-8.77819,18.135)">
                        <g transform="matrix(247,0,0,247,2215.84,1083.76)">
                            <path d="M0.461,-0.349C0.461,-0.605 0.415,-0.709 0.26,-0.709C0.105,-0.709 0.059,-0.605 0.059,-0.349C0.059,-0.092 0.105,0.01 0.26,0.01C0.415,0.01 0.461,-0.092 0.461,-0.349ZM0.091,-0.349C0.091,-0.597 0.137,-0.679 0.26,-0.679C0.383,-0.679 0.429,-0.597 0.429,-0.349C0.429,-0.1 0.383,-0.02 0.26,-0.02C0.137,-0.02 0.091,-0.1 0.091,-0.349Z" style="fill:rgb(242,242,242);fill-rule:nonzero;"/>
                        </g>
                    </g>
                    <g transform="matrix(0.997505,-0.07059,0.07059,0.997505,-70.4961,169.019)">
                        <g transform="matrix(247,0,0,247,2356.14,1081.93)">
                            <path d="M0.027,-0.003L0.379,-0.003L0.379,-0.033L0.06,-0.032C0.097,-0.072 0.176,-0.159 0.216,-0.207C0.301,-0.315 0.371,-0.411 0.371,-0.536C0.371,-0.644 0.314,-0.709 0.201,-0.709C0.096,-0.709 0.029,-0.642 0.029,-0.518L0.061,-0.518C0.061,-0.628 0.119,-0.679 0.201,-0.679C0.29,-0.679 0.338,-0.63 0.338,-0.534C0.338,-0.42 0.274,-0.327 0.188,-0.222C0.103,-0.118 0.027,-0.042 0.027,-0.042L0.027,-0.003Z" style="fill:rgb(242,242,242);fill-rule:nonzero;"/>
                        </g>
                    </g>
                    <g transform="matrix(0.990948,-0.134249,0.134249,0.990948,-121.687,341.668)">
                        <g transform="matrix(247,0,0,247,2472.67,1073.16)">
                            <path d="M0.027,-0.003L0.379,-0.003L0.379,-0.033L0.06,-0.032C0.097,-0.072 0.176,-0.159 0.216,-0.207C0.301,-0.315 0.371,-0.411 0.371,-0.536C0.371,-0.644 0.314,-0.709 0.201,-0.709C0.096,-0.709 0.029,-0.642 0.029,-0.518L0.061,-0.518C0.061,-0.628 0.119,-0.679 0.201,-0.679C0.29,-0.679 0.338,-0.63 0.338,-0.534C0.338,-0.42 0.274,-0.327 0.188,-0.222C0.103,-0.118 0.027,-0.042 0.027,-0.042L0.027,-0.003Z" style="fill:rgb(242,242,242);fill-rule:nonzero;"/>
                        </g>
                    </g>
                </g>
                <g transform="matrix(1,0,0,1,353.114,-737.792)">
                    <g transform="matrix(0.999974,0.00726337,-0.00726337,0.999974,7.57518,-10.6686)">
                        <g transform="matrix(64,0,0,64,1472.58,1037.58)">
                            <rect x="0.074" y="-0.703" width="0.063" height="0.703" style="fill:rgb(242,242,242);fill-rule:nonzero;"/>
                        </g>
                    </g>
                    <g transform="matrix(0.999835,0.0181786,-0.0181786,0.999835,19.1094,-26.9023)">
                        <g transform="matrix(64,0,0,64,1489.32,1037.66)">
                            <path d="M0.49,-0.227L0.429,-0.227C0.424,-0.098 0.377,-0.04 0.281,-0.04C0.159,-0.04 0.114,-0.121 0.114,-0.351C0.114,-0.581 0.159,-0.663 0.281,-0.663C0.379,-0.663 0.426,-0.605 0.43,-0.468L0.492,-0.468C0.49,-0.64 0.425,-0.719 0.281,-0.719C0.109,-0.719 0.049,-0.611 0.049,-0.351C0.049,-0.09 0.109,0.016 0.281,0.016C0.423,0.016 0.487,-0.062 0.49,-0.227Z" style="fill:rgb(242,242,242);fill-rule:nonzero;"/>
                        </g>
                    </g>
                    <g transform="matrix(0.999513,0.0312151,-0.0312151,0.999513,33.1567,-47.1445)">
                        <g transform="matrix(64,0,0,64,1526.52,1038.37)">
                            <path d="M0.467,-0.17C0.467,-0.428 0.113,-0.335 0.113,-0.54C0.113,-0.601 0.141,-0.666 0.252,-0.665C0.375,-0.664 0.393,-0.594 0.393,-0.512L0.454,-0.512C0.454,-0.642 0.407,-0.719 0.251,-0.72C0.108,-0.721 0.05,-0.643 0.05,-0.538C0.049,-0.282 0.404,-0.376 0.404,-0.169C0.404,-0.094 0.365,-0.038 0.257,-0.039C0.145,-0.039 0.105,-0.105 0.105,-0.206L0.043,-0.206C0.043,-0.06 0.11,0.015 0.255,0.016C0.401,0.016 0.467,-0.054 0.467,-0.17Z" style="fill:rgb(242,242,242);fill-rule:nonzero;"/>
                        </g>
                    </g>
                    <g transform="matrix(0.998902,0.0468417,-0.0468417,0.998902,50.4514,-72.7337)">
                        <g transform="matrix(64,0,0,64,1577.13,1040.1)">
                            <path d="M0.467,-0.17C0.467,-0.428 0.113,-0.335 0.113,-0.54C0.113,-0.601 0.141,-0.666 0.252,-0.665C0.375,-0.664 0.393,-0.594 0.393,-0.512L0.454,-0.512C0.454,-0.642 0.407,-0.719 0.251,-0.72C0.108,-0.721 0.05,-0.643 0.05,-0.538C0.049,-0.282 0.404,-0.376 0.404,-0.169C0.404,-0.094 0.365,-0.038 0.257,-0.039C0.145,-0.039 0.105,-0.105 0.105,-0.206L0.043,-0.206C0.043,-0.06 0.11,0.015 0.255,0.016C0.401,0.016 0.467,-0.054 0.467,-0.17Z" style="fill:rgb(242,242,242);fill-rule:nonzero;"/>
                        </g>
                    </g>
                    <g transform="matrix(0.998528,0.0542446,-0.0542446,0.998528,58.8875,-85.9509)">
                        <g transform="matrix(64,0,0,64,1612.78,1041.82)">
                            <path d="M0.251,0.001L0.251,-0.054L0.218,-0.054C0.148,-0.054 0.138,-0.107 0.138,-0.205L0.138,-0.485L0.248,-0.485L0.248,-0.534L0.138,-0.534L0.138,-0.706L0.077,-0.693L0.077,-0.534L0.018,-0.534L0.018,-0.485L0.077,-0.485L0.077,-0.203C0.077,-0.081 0.087,0.001 0.214,0.001L0.251,0.001Z" style="fill:rgb(242,242,242);fill-rule:nonzero;"/>
                        </g>
                    </g>
                    <g transform="matrix(0.998158,0.0606633,-0.0606633,0.998158,66.2742,-97.1502)">
                        <g transform="matrix(64,0,0,64,1633.13,1042.91)">
                            <path d="M0.374,-0L0.427,-0L0.419,-0.147L0.419,-0.534L0.358,-0.534L0.358,-0.174C0.345,-0.135 0.306,-0.048 0.217,-0.048C0.142,-0.048 0.12,-0.102 0.12,-0.199L0.12,-0.534L0.06,-0.534L0.059,-0.199C0.059,-0.047 0.101,0.008 0.199,0.008C0.302,0.008 0.348,-0.068 0.363,-0.103L0.374,-0Z" style="fill:rgb(242,242,242);fill-rule:nonzero;"/>
                        </g>
                    </g>
                    <g transform="matrix(0.997712,0.067602,-0.067602,0.997712,74.4594,-110.331)">
                        <g transform="matrix(64,0,0,64,1667.43,1045.01)">
                            <path d="M0.379,-0L0.431,-0L0.423,-0.139L0.423,-0.744L0.363,-0.744L0.363,-0.459C0.342,-0.494 0.297,-0.544 0.216,-0.544C0.095,-0.544 0.049,-0.444 0.049,-0.264C0.049,-0.087 0.096,0.009 0.22,0.009C0.313,0.009 0.352,-0.043 0.369,-0.081L0.379,-0ZM0.232,-0.044C0.148,-0.044 0.111,-0.111 0.111,-0.265C0.111,-0.419 0.148,-0.491 0.23,-0.491C0.307,-0.491 0.345,-0.432 0.363,-0.393L0.363,-0.137C0.344,-0.095 0.306,-0.044 0.232,-0.044Z" style="fill:rgb(242,242,242);fill-rule:nonzero;"/>
                        </g>
                    </g>
                    <g transform="matrix(0.997303,0.0733907,-0.0733907,0.997303,81.4559,-122.077)">
                        <g transform="matrix(64,0,0,64,1701.87,1047.36)">
                            <path d="M0.423,-0.159L0.362,-0.159C0.361,-0.114 0.338,-0.039 0.239,-0.039C0.141,-0.039 0.112,-0.106 0.112,-0.263L0.426,-0.263C0.426,-0.452 0.383,-0.545 0.239,-0.545C0.091,-0.545 0.049,-0.443 0.049,-0.265C0.049,-0.087 0.091,0.011 0.239,0.011C0.395,0.011 0.422,-0.102 0.423,-0.159ZM0.239,-0.497C0.323,-0.497 0.357,-0.443 0.363,-0.31L0.113,-0.31C0.118,-0.44 0.15,-0.497 0.239,-0.497Z" style="fill:rgb(242,242,242);fill-rule:nonzero;"/>
                        </g>
                    </g>
                    <g transform="matrix(0.996956,0.077965,-0.077965,0.996956,87.1314,-132.091)">
                        <g transform="matrix(64,0,0,64,1735.22,1049.82)">
                            <path d="M0.07,-0L0.131,-0L0.131,-0.379C0.148,-0.419 0.188,-0.486 0.268,-0.486C0.344,-0.486 0.367,-0.433 0.367,-0.333L0.367,-0L0.428,-0L0.428,-0.333C0.428,-0.487 0.384,-0.542 0.287,-0.542C0.191,-0.542 0.144,-0.48 0.125,-0.443L0.115,-0.534L0.062,-0.534L0.07,-0.396L0.07,-0Z" style="fill:rgb(242,242,242);fill-rule:nonzero;"/>
                        </g>
                    </g>
                    <g transform="matrix(0.996727,0.0808409,-0.0808409,0.996727,90.879,-139.609)">
                        <g transform="matrix(64,0,0,64,1769.58,1052.53)">
                            <path d="M0.251,0.001L0.251,-0.054L0.218,-0.054C0.148,-0.054 0.138,-0.107 0.138,-0.205L0.138,-0.485L0.248,-0.485L0.248,-0.534L0.138,-0.534L0.138,-0.706L0.077,-0.693L0.077,-0.534L0.018,-0.534L0.018,-0.485L0.077,-0.485L0.077,-0.203C0.077,-0.081 0.087,0.001 0.214,0.001L0.251,0.001Z" style="fill:rgb(242,242,242);fill-rule:nonzero;"/>
                        </g>
                    </g>
                    <g transform="matrix(0.996471,0.0839338,-0.0839338,0.996471,94.9506,-147.743)">
                        <g transform="matrix(64,0,0,64,1804.6,1055.39)">
                            <path d="M0.49,-0.227L0.429,-0.227C0.424,-0.098 0.377,-0.04 0.281,-0.04C0.159,-0.04 0.114,-0.121 0.114,-0.351C0.114,-0.581 0.159,-0.663 0.281,-0.663C0.379,-0.663 0.426,-0.605 0.43,-0.468L0.492,-0.468C0.49,-0.64 0.425,-0.719 0.281,-0.719C0.109,-0.719 0.049,-0.611 0.049,-0.351C0.049,-0.09 0.109,0.016 0.281,0.016C0.423,0.016 0.487,-0.062 0.49,-0.227Z" style="fill:rgb(242,242,242);fill-rule:nonzero;"/>
                        </g>
                    </g>
                    <g transform="matrix(0.996375,0.0850639,-0.0850639,0.996375,96.7143,-152.804)">
                        <g transform="matrix(64,0,0,64,1841.45,1058.5)">
                            <path d="M0.432,-0.266C0.432,-0.443 0.392,-0.546 0.24,-0.546C0.089,-0.545 0.049,-0.443 0.049,-0.266C0.049,-0.088 0.089,0.011 0.24,0.011C0.392,0.011 0.432,-0.088 0.432,-0.266ZM0.112,-0.266C0.112,-0.422 0.14,-0.494 0.24,-0.494C0.341,-0.494 0.369,-0.422 0.369,-0.266C0.369,-0.11 0.341,-0.04 0.24,-0.04C0.14,-0.04 0.112,-0.11 0.112,-0.266Z" style="fill:rgb(242,242,242);fill-rule:nonzero;"/>
                        </g>
                    </g>
                    <g transform="matrix(0.996381,0.0850009,-0.0850009,0.996381,97.0055,-155.555)">
                        <g transform="matrix(64,0,0,64,1875.23,1061.39)">
                            <path d="M0.374,-0L0.427,-0L0.419,-0.147L0.419,-0.534L0.358,-0.534L0.358,-0.174C0.345,-0.135 0.306,-0.048 0.217,-0.048C0.142,-0.048 0.12,-0.102 0.12,-0.199L0.12,-0.534L0.06,-0.534L0.059,-0.199C0.059,-0.047 0.101,0.008 0.199,0.008C0.302,0.008 0.348,-0.068 0.363,-0.103L0.374,-0Z" style="fill:rgb(242,242,242);fill-rule:nonzero;"/>
                        </g>
                    </g>
                    <g transform="matrix(0.996487,0.0837421,-0.0837421,0.996487,95.8345,-156.164)">
                        <g transform="matrix(64,0,0,64,1909.47,1064.31)">
                            <path d="M0.07,-0L0.131,-0L0.131,-0.379C0.148,-0.419 0.188,-0.486 0.268,-0.486C0.344,-0.486 0.367,-0.433 0.367,-0.333L0.367,-0L0.428,-0L0.428,-0.333C0.428,-0.487 0.384,-0.542 0.287,-0.542C0.191,-0.542 0.144,-0.48 0.125,-0.443L0.115,-0.534L0.062,-0.534L0.07,-0.396L0.07,-0Z" style="fill:rgb(242,242,242);fill-rule:nonzero;"/>
                        </g>
                    </g>
                    <g transform="matrix(0.996688,0.0813203,-0.0813203,0.996688,93.2213,-154.528)">
                        <g transform="matrix(64,0,0,64,1943.7,1067.18)">
                            <path d="M0.417,-0.171L0.357,-0.171C0.356,-0.086 0.318,-0.041 0.238,-0.041C0.141,-0.041 0.112,-0.109 0.112,-0.266C0.112,-0.421 0.141,-0.495 0.238,-0.495C0.32,-0.495 0.356,-0.444 0.357,-0.345L0.417,-0.345C0.415,-0.469 0.371,-0.546 0.238,-0.546C0.09,-0.546 0.049,-0.443 0.049,-0.266C0.049,-0.089 0.09,0.01 0.238,0.01C0.368,0.01 0.415,-0.062 0.417,-0.171Z" style="fill:rgb(242,242,242);fill-rule:nonzero;"/>
                        </g>
                    </g>
                    <g transform="matrix(0.996891,0.0787977,-0.0787977,0.996891,90.4463,-152.411)">
                        <g transform="matrix(64,0,0,64,1976.42,1069.84)">
                            <path d="M0.07,-0.631L0.131,-0.631L0.131,-0.739L0.07,-0.739L0.07,-0.631ZM0.07,-0L0.131,-0L0.131,-0.534L0.07,-0.534L0.07,-0Z" style="fill:rgb(242,242,242);fill-rule:nonzero;"/>
                        </g>
                    </g>
                    <g transform="matrix(0.997049,0.0767663,-0.0767663,0.997049,88.1035,-149.786)">
                        <g transform="matrix(64,0,0,64,1992.37,1071.1)">
                            <rect x="0.071" y="-0.744" width="0.061" height="0.744" style="fill:rgb(242,242,242);fill-rule:nonzero;"/>
                        </g>
                    </g>
                    <g transform="matrix(0.997555,0.0698828,-0.0698828,0.997555,79.9636,-138.773)">
                        <g transform="matrix(64,0,0,64,2023.35,1073.47)">
                            <path d="M0.074,-0L0.137,-0L0.137,-0.259L0.262,-0.259C0.423,-0.259 0.492,-0.308 0.492,-0.483C0.492,-0.657 0.423,-0.706 0.262,-0.706L0.074,-0.706L0.074,-0ZM0.137,-0.653L0.269,-0.653C0.364,-0.653 0.428,-0.633 0.428,-0.483C0.428,-0.333 0.364,-0.313 0.269,-0.313L0.137,-0.313L0.137,-0.653Z" style="fill:rgb(242,242,242);fill-rule:nonzero;"/>
                        </g>
                    </g>
                    <g transform="matrix(0.997966,0.0637505,-0.0637505,0.997966,72.7874,-129.143)">
                        <g transform="matrix(64,0,0,64,2060.09,1076.02)">
                            <path d="M0.07,-0L0.131,-0L0.131,-0.34C0.141,-0.386 0.176,-0.489 0.28,-0.489L0.28,-0.544C0.18,-0.544 0.14,-0.472 0.125,-0.429L0.115,-0.534L0.062,-0.534L0.07,-0.384L0.07,-0Z" style="fill:rgb(242,242,242);fill-rule:nonzero;"/>
                        </g>
                    </g>
                    <g transform="matrix(0.998346,0.0574925,-0.0574925,0.998346,65.3853,-117.884)">
                        <g transform="matrix(64,0,0,64,2081.42,1077.4)">
                            <path d="M0.423,-0.159L0.362,-0.159C0.361,-0.114 0.338,-0.039 0.239,-0.039C0.141,-0.039 0.112,-0.106 0.112,-0.263L0.426,-0.263C0.426,-0.452 0.383,-0.545 0.239,-0.545C0.091,-0.545 0.049,-0.443 0.049,-0.265C0.049,-0.087 0.091,0.011 0.239,0.011C0.395,0.011 0.422,-0.102 0.423,-0.159ZM0.239,-0.497C0.323,-0.497 0.357,-0.443 0.363,-0.31L0.113,-0.31C0.118,-0.44 0.15,-0.497 0.239,-0.497Z" style="fill:rgb(242,242,242);fill-rule:nonzero;"/>
                        </g>
                    </g>
                    <g transform="matrix(0.998834,0.0482801,-0.0482801,0.998834,54.575,-100.84)">
                        <g transform="matrix(64,0,0,64,2114.72,1079.3)">
                            <path d="M0.4,-0.133C0.4,-0.332 0.108,-0.264 0.108,-0.404C0.108,-0.46 0.138,-0.498 0.221,-0.497C0.299,-0.496 0.331,-0.458 0.331,-0.378L0.39,-0.378C0.39,-0.489 0.337,-0.545 0.22,-0.546C0.101,-0.546 0.046,-0.493 0.047,-0.405C0.048,-0.214 0.34,-0.283 0.339,-0.134C0.338,-0.072 0.304,-0.038 0.221,-0.039C0.149,-0.039 0.099,-0.071 0.099,-0.167L0.039,-0.167C0.039,-0.044 0.106,0.01 0.222,0.011C0.351,0.012 0.4,-0.044 0.4,-0.133Z" style="fill:rgb(242,242,242);fill-rule:nonzero;"/>
                        </g>
                    </g>
                    <g transform="matrix(0.999304,0.0373027,-0.0373027,0.999304,41.8109,-79.3029)">
                        <g transform="matrix(64,0,0,64,2146.09,1080.81)">
                            <path d="M0.423,-0.159L0.362,-0.159C0.361,-0.114 0.338,-0.039 0.239,-0.039C0.141,-0.039 0.112,-0.106 0.112,-0.263L0.426,-0.263C0.426,-0.452 0.383,-0.545 0.239,-0.545C0.091,-0.545 0.049,-0.443 0.049,-0.265C0.049,-0.087 0.091,0.011 0.239,0.011C0.395,0.011 0.422,-0.102 0.423,-0.159ZM0.239,-0.497C0.323,-0.497 0.357,-0.443 0.363,-0.31L0.113,-0.31C0.118,-0.44 0.15,-0.497 0.239,-0.497Z" style="fill:rgb(242,242,242);fill-rule:nonzero;"/>
                        </g>
                    </g>
                    <g transform="matrix(0.999672,0.0256006,-0.0256006,0.999672,28.4152,-55.4399)">
                        <g transform="matrix(64,0,0,64,2179.42,1082.04)">
                            <path d="M0.07,-0L0.131,-0L0.131,-0.379C0.148,-0.419 0.188,-0.486 0.268,-0.486C0.344,-0.486 0.367,-0.433 0.367,-0.333L0.367,-0L0.428,-0L0.428,-0.333C0.428,-0.487 0.384,-0.542 0.287,-0.542C0.191,-0.542 0.144,-0.48 0.125,-0.443L0.115,-0.534L0.062,-0.534L0.07,-0.396L0.07,-0Z" style="fill:rgb(242,242,242);fill-rule:nonzero;"/>
                        </g>
                    </g>
                    <g transform="matrix(0.99988,0.0155225,-0.0155225,0.99988,17.0757,-34.2349)">
                        <g transform="matrix(64,0,0,64,2213.91,1082.88)">
                            <path d="M0.251,0.001L0.251,-0.054L0.218,-0.054C0.148,-0.054 0.138,-0.107 0.138,-0.205L0.138,-0.485L0.248,-0.485L0.248,-0.534L0.138,-0.534L0.138,-0.706L0.077,-0.693L0.077,-0.534L0.018,-0.534L0.018,-0.485L0.077,-0.485L0.077,-0.203C0.077,-0.081 0.087,0.001 0.214,0.001L0.251,0.001Z" style="fill:rgb(242,242,242);fill-rule:nonzero;"/>
                        </g>
                    </g>
                    <g transform="matrix(0.999986,0.00532875,-0.00532875,0.999986,5.80385,-11.8904)">
                        <g transform="matrix(64,0,0,64,2234.25,1083.2)">
                            <path d="M0.4,-0.133C0.4,-0.332 0.108,-0.264 0.108,-0.404C0.108,-0.46 0.138,-0.498 0.221,-0.497C0.299,-0.496 0.331,-0.458 0.331,-0.378L0.39,-0.378C0.39,-0.489 0.337,-0.545 0.22,-0.546C0.101,-0.546 0.046,-0.493 0.047,-0.405C0.048,-0.214 0.34,-0.283 0.339,-0.134C0.338,-0.072 0.304,-0.038 0.221,-0.039C0.149,-0.039 0.099,-0.071 0.099,-0.167L0.039,-0.167C0.039,-0.044 0.106,0.01 0.222,0.011C0.351,0.012 0.4,-0.044 0.4,-0.133Z" style="fill:rgb(242,242,242);fill-rule:nonzero;"/>
                        </g>
                    </g>
                </g>
                <g transform="matrix(1,0,0,1,353.114,-421.36)">
                    <g transform="matrix(0.997968,-0.0637166,0.0637166,0.997968,-63.7584,86.1176)">
                        <g transform="matrix(64,0,0,64,1318.32,1042.7)">
                            <path d="M0.074,-0L0.134,-0L0.129,-0.637L0.337,-0L0.401,-0L0.613,-0.635L0.608,-0L0.669,-0L0.67,-0.703L0.574,-0.703L0.369,-0.067L0.168,-0.703L0.074,-0.703L0.074,-0Z" style="fill:rgb(242,242,242);fill-rule:nonzero;"/>
                        </g>
                    </g>
                    <g transform="matrix(0.999252,-0.0386731,0.0386731,0.999252,-39.1808,53.7262)">
                        <g transform="matrix(64,0,0,64,1369.13,1039.61)">
                            <path d="M0.432,-0.266C0.432,-0.443 0.392,-0.546 0.24,-0.546C0.089,-0.545 0.049,-0.443 0.049,-0.266C0.049,-0.088 0.089,0.011 0.24,0.011C0.392,0.011 0.432,-0.088 0.432,-0.266ZM0.112,-0.266C0.112,-0.422 0.14,-0.494 0.24,-0.494C0.341,-0.494 0.369,-0.422 0.369,-0.266C0.369,-0.11 0.341,-0.04 0.24,-0.04C0.14,-0.04 0.112,-0.11 0.112,-0.266Z" style="fill:rgb(242,242,242);fill-rule:nonzero;"/>
                        </g>
                    </g>
                    <g transform="matrix(0.999788,-0.0205923,0.0205923,0.999788,-21.0841,29.1117)">
                        <g transform="matrix(64,0,0,64,1403.03,1038.33)">
                            <path d="M0.07,-0L0.131,-0L0.131,-0.379C0.148,-0.419 0.188,-0.486 0.268,-0.486C0.344,-0.486 0.367,-0.433 0.367,-0.333L0.367,-0L0.428,-0L0.428,-0.333C0.428,-0.487 0.384,-0.542 0.287,-0.542C0.191,-0.542 0.144,-0.48 0.125,-0.443L0.115,-0.534L0.062,-0.534L0.07,-0.396L0.07,-0Z" style="fill:rgb(242,242,242);fill-rule:nonzero;"/>
                        </g>
                    </g>
                    <g transform="matrix(0.999978,-0.00664594,0.00664594,0.999978,-6.86464,9.57613)">
                        <g transform="matrix(64,0,0,64,1437.45,1037.68)">
                            <rect x="0.066" y="-0.344" width="0.187" height="0.05" style="fill:rgb(242,242,242);fill-rule:nonzero;"/>
                        </g>
                    </g>
                    <g transform="matrix(0.999979,0.00643151,-0.00643151,0.999979,6.70299,-9.37621)">
                        <g transform="matrix(64,0,0,64,1461.19,1037.51)">
                            <path d="M0.074,-0L0.137,-0L0.137,-0.325L0.391,-0.325L0.391,-0.379L0.137,-0.379L0.137,-0.648L0.431,-0.648L0.431,-0.703L0.074,-0.703L0.074,-0Z" style="fill:rgb(242,242,242);fill-rule:nonzero;"/>
                        </g>
                    </g>
                    <g transform="matrix(0.999861,0.0166435,-0.0166435,0.999861,17.4781,-24.6834)">
                        <g transform="matrix(64,0,0,64,1491.7,1037.73)">
                            <path d="M0.07,-0L0.131,-0L0.131,-0.34C0.141,-0.386 0.176,-0.489 0.28,-0.489L0.28,-0.544C0.18,-0.544 0.14,-0.472 0.125,-0.429L0.115,-0.534L0.062,-0.534L0.07,-0.384L0.07,-0Z" style="fill:rgb(242,242,242);fill-rule:nonzero;"/>
                        </g>
                    </g>
                    <g transform="matrix(0.999726,0.0234012,-0.0234012,0.999726,24.7079,-35.1491)">
                        <g transform="matrix(64,0,0,64,1514.17,1038.12)">
                            <path d="M0.07,-0.631L0.131,-0.631L0.131,-0.739L0.07,-0.739L0.07,-0.631ZM0.07,-0L0.131,-0L0.131,-0.534L0.07,-0.534L0.07,-0Z" style="fill:rgb(242,242,242);fill-rule:nonzero;"/>
                        </g>
                    </g>
                    <g transform="matrix(0.99959,0.0286412,-0.0286412,0.99959,30.372,-43.4035)">
                        <g transform="matrix(64,0,0,64,1530.3,1038.51)">
                            <path d="M0.029,0.096L0.075,0.096C0.075,0.096 0.097,0.055 0.114,-0.016C0.129,-0.085 0.128,-0.121 0.128,-0.121L0.07,-0.121C0.07,-0.121 0.071,-0.09 0.059,-0.02C0.047,0.05 0.029,0.096 0.029,0.096Z" style="fill:rgb(242,242,242);fill-rule:nonzero;"/>
                        </g>
                    </g>
                    <g transform="matrix(0.999083,0.042825,-0.042825,0.999083,45.9444,-65.8635)">
                        <g transform="matrix(64,0,0,64,1560.23,1039.42)">
                            <path d="M0.132,-0.624L0.454,-0L0.528,-0L0.528,-0.703L0.469,-0.703L0.471,-0.084L0.151,-0.703L0.076,-0.703L0.074,-0L0.133,-0L0.132,-0.624Z" style="fill:rgb(242,242,242);fill-rule:nonzero;"/>
                        </g>
                    </g>
                    <g transform="matrix(0.998582,0.0532275,-0.0532275,0.998582,57.694,-83.7929)">
                        <g transform="matrix(64,0,0,64,1601.97,1041.25)">
                            <path d="M0.432,-0.266C0.432,-0.443 0.392,-0.546 0.24,-0.546C0.089,-0.545 0.049,-0.443 0.049,-0.266C0.049,-0.088 0.089,0.011 0.24,0.011C0.392,0.011 0.432,-0.088 0.432,-0.266ZM0.112,-0.266C0.112,-0.422 0.14,-0.494 0.24,-0.494C0.341,-0.494 0.369,-0.422 0.369,-0.266C0.369,-0.11 0.341,-0.04 0.24,-0.04C0.14,-0.04 0.112,-0.11 0.112,-0.266Z" style="fill:rgb(242,242,242);fill-rule:nonzero;"/>
                        </g>
                    </g>
                    <g transform="matrix(0.998156,0.0606952,-0.0606952,0.998156,66.3229,-97.3348)">
                        <g transform="matrix(64,0,0,64,1635.35,1043.05)">
                            <path d="M0.011,-0.534L0.177,-0L0.243,-0L0.41,-0.534L0.343,-0.534L0.21,-0.06L0.079,-0.534L0.011,-0.534Z" style="fill:rgb(242,242,242);fill-rule:nonzero;"/>
                        </g>
                    </g>
                    <g transform="matrix(0.997743,0.0671416,-0.0671416,0.997743,73.9113,-109.442)">
                        <g transform="matrix(64,0,0,64,1665.13,1044.86)">
                            <path d="M0.423,-0.159L0.362,-0.159C0.361,-0.114 0.338,-0.039 0.239,-0.039C0.141,-0.039 0.112,-0.106 0.112,-0.263L0.426,-0.263C0.426,-0.452 0.383,-0.545 0.239,-0.545C0.091,-0.545 0.049,-0.443 0.049,-0.265C0.049,-0.087 0.091,0.011 0.239,0.011C0.395,0.011 0.422,-0.102 0.423,-0.159ZM0.239,-0.497C0.323,-0.497 0.357,-0.443 0.363,-0.31L0.113,-0.31C0.118,-0.44 0.15,-0.497 0.239,-0.497Z" style="fill:rgb(242,242,242);fill-rule:nonzero;"/>
                        </g>
                    </g>
                    <g transform="matrix(0.997243,0.0742102,-0.0742102,0.997243,82.3877,-123.151)">
                        <g transform="matrix(64,0,0,64,1698.39,1047.09)">
                            <path d="M0.07,-0L0.131,-0L0.131,-0.381C0.148,-0.421 0.187,-0.486 0.262,-0.486C0.332,-0.486 0.355,-0.429 0.355,-0.356L0.355,-0L0.412,-0L0.412,-0.356C0.412,-0.366 0.412,-0.376 0.411,-0.386C0.429,-0.426 0.467,-0.486 0.54,-0.486C0.611,-0.486 0.635,-0.433 0.635,-0.336L0.635,-0L0.694,-0L0.694,-0.336C0.694,-0.487 0.649,-0.542 0.556,-0.542C0.465,-0.542 0.42,-0.483 0.402,-0.445C0.384,-0.511 0.342,-0.542 0.276,-0.542C0.187,-0.542 0.143,-0.484 0.124,-0.447L0.115,-0.534L0.062,-0.534L0.07,-0.396L0.07,-0Z" style="fill:rgb(242,242,242);fill-rule:nonzero;"/>
                        </g>
                    </g>
                    <g transform="matrix(0.996824,0.0796377,-0.0796377,0.996824,89.2522,-136.008)">
                        <g transform="matrix(64,0,0,64,1749.74,1050.95)">
                            <path d="M0.062,-0L0.115,-0L0.124,-0.077C0.142,-0.041 0.184,0.009 0.274,0.009C0.398,0.009 0.444,-0.087 0.444,-0.264C0.444,-0.444 0.398,-0.544 0.278,-0.544C0.196,-0.544 0.152,-0.494 0.131,-0.459L0.131,-0.744L0.07,-0.744L0.07,-0.139L0.062,-0ZM0.264,-0.491C0.345,-0.491 0.383,-0.419 0.383,-0.265C0.383,-0.111 0.345,-0.044 0.262,-0.044C0.188,-0.044 0.15,-0.093 0.131,-0.134L0.131,-0.393C0.149,-0.432 0.189,-0.491 0.264,-0.491Z" style="fill:rgb(242,242,242);fill-rule:nonzero;"/>
                        </g>
                    </g>
                    <g transform="matrix(0.996584,0.0825848,-0.0825848,0.996584,93.1166,-143.762)">
                        <g transform="matrix(64,0,0,64,1784.37,1053.72)">
                            <path d="M0.423,-0.159L0.362,-0.159C0.361,-0.114 0.338,-0.039 0.239,-0.039C0.141,-0.039 0.112,-0.106 0.112,-0.263L0.426,-0.263C0.426,-0.452 0.383,-0.545 0.239,-0.545C0.091,-0.545 0.049,-0.443 0.049,-0.265C0.049,-0.087 0.091,0.011 0.239,0.011C0.395,0.011 0.422,-0.102 0.423,-0.159ZM0.239,-0.497C0.323,-0.497 0.357,-0.443 0.363,-0.31L0.113,-0.31C0.118,-0.44 0.15,-0.497 0.239,-0.497Z" style="fill:rgb(242,242,242);fill-rule:nonzero;"/>
                        </g>
                    </g>
                    <g transform="matrix(0.996445,0.0842463,-0.0842463,0.996445,95.4674,-149.379)">
                        <g transform="matrix(64,0,0,64,1817.71,1056.49)">
                            <path d="M0.07,-0L0.131,-0L0.131,-0.34C0.141,-0.386 0.176,-0.489 0.28,-0.489L0.28,-0.544C0.18,-0.544 0.14,-0.472 0.125,-0.429L0.115,-0.534L0.062,-0.534L0.07,-0.384L0.07,-0Z" style="fill:rgb(242,242,242);fill-rule:nonzero;"/>
                        </g>
                    </g>
                    <g transform="matrix(0.996371,0.0851198,-0.0851198,0.996371,96.9274,-154.032)">
                        <g transform="matrix(64,0,0,64,1854.77,1059.64)">
                            <path d="M0.121,-0L0.182,-0L0.182,-0.705L0.141,-0.705L0.016,-0.635L0.016,-0.575L0.121,-0.633L0.121,-0Z" style="fill:rgb(242,242,242);fill-rule:nonzero;"/>
                        </g>
                    </g>
                    <g transform="matrix(0.99638,0.0850063,-0.0850063,0.99638,97.019,-155.619)">
                        <g transform="matrix(64,0,0,64,1875.87,1061.44)">
                            <path d="M0.311,-0L0.371,-0L0.371,-0.158L0.438,-0.158L0.438,-0.211L0.371,-0.211L0.371,-0.703L0.283,-0.703L0.019,-0.211L0.019,-0.158L0.311,-0.158L0.311,-0ZM0.311,-0.211L0.086,-0.211L0.311,-0.647L0.311,-0.211Z" style="fill:rgb(242,242,242);fill-rule:nonzero;"/>
                        </g>
                    </g>
                    <g transform="matrix(0.996461,0.0840559,-0.0840559,0.996461,96.2115,-156.68)">
                        <g transform="matrix(64,0,0,64,1908.8,1064.25)">
                            <rect x="0.066" y="-0.344" width="0.187" height="0.05" style="fill:rgb(242,242,242);fill-rule:nonzero;"/>
                        </g>
                    </g>
                    <g transform="matrix(0.996558,0.0829004,-0.0829004,0.996558,95.0432,-156.528)">
                        <g transform="matrix(64,0,0,64,1932.42,1066.24)">
                            <path d="M0.121,-0L0.182,-0L0.182,-0.705L0.141,-0.705L0.016,-0.635L0.016,-0.575L0.121,-0.633L0.121,-0Z" style="fill:rgb(242,242,242);fill-rule:nonzero;"/>
                        </g>
                    </g>
                    <g transform="matrix(0.996774,0.0802565,-0.0802565,0.996774,92.0144,-153.331)">
                        <g transform="matrix(64,0,0,64,1953.44,1067.99)">
                            <path d="M0.253,0.011C0.404,0.011 0.458,-0.061 0.458,-0.192C0.458,-0.334 0.378,-0.371 0.351,-0.374C0.372,-0.377 0.44,-0.408 0.44,-0.522C0.44,-0.643 0.392,-0.715 0.253,-0.715C0.114,-0.715 0.066,-0.643 0.066,-0.522C0.066,-0.408 0.135,-0.377 0.155,-0.374C0.126,-0.371 0.048,-0.334 0.048,-0.192C0.048,-0.061 0.102,0.011 0.253,0.011ZM0.253,-0.667C0.336,-0.667 0.377,-0.624 0.377,-0.518C0.377,-0.429 0.338,-0.395 0.253,-0.395C0.168,-0.395 0.128,-0.433 0.128,-0.518C0.128,-0.624 0.17,-0.667 0.253,-0.667ZM0.253,-0.35C0.347,-0.35 0.392,-0.303 0.392,-0.197C0.392,-0.086 0.345,-0.042 0.253,-0.042C0.161,-0.042 0.114,-0.086 0.114,-0.197C0.114,-0.303 0.159,-0.35 0.253,-0.35Z" style="fill:rgb(242,242,242);fill-rule:nonzero;"/>
                        </g>
                    </g>
                    <g transform="matrix(0.997168,0.0752086,-0.0752086,0.997168,86.2966,-147.663)">
                        <g transform="matrix(64,0,0,64,2003.74,1071.97)">
                            <rect x="0.071" y="-0.808" width="0.047" height="0.996" style="fill:rgb(242,242,242);fill-rule:nonzero;"/>
                        </g>
                    </g>
                    <g transform="matrix(0.997703,0.0677468,-0.0677468,0.997703,77.4478,-135.312)">
                        <g transform="matrix(64,0,0,64,2033.75,1074.23)">
                            <path d="M0.074,0.003L0.247,0.003C0.461,0.003 0.509,-0.094 0.509,-0.351C0.509,-0.607 0.461,-0.706 0.247,-0.706L0.074,-0.706L0.074,0.003ZM0.137,-0.65L0.256,-0.65C0.4,-0.65 0.445,-0.579 0.445,-0.351C0.445,-0.123 0.4,-0.052 0.256,-0.052L0.137,-0.052L0.137,-0.65Z" style="fill:rgb(242,242,242);fill-rule:nonzero;"/>
                        </g>
                    </g>
                    <g transform="matrix(0.998258,0.0589952,-0.0589952,0.998258,67.1396,-120.398)">
                        <g transform="matrix(64,0,0,64,2072.61,1076.86)">
                            <path d="M0.074,-0.707L0.074,0.003L0.277,0.003C0.464,0.003 0.495,-0.063 0.495,-0.193C0.495,-0.278 0.467,-0.344 0.386,-0.37C0.458,-0.394 0.48,-0.454 0.48,-0.534C0.48,-0.637 0.437,-0.707 0.278,-0.707L0.074,-0.707ZM0.137,-0.656L0.279,-0.656C0.38,-0.656 0.418,-0.614 0.418,-0.528C0.418,-0.435 0.383,-0.395 0.29,-0.395L0.137,-0.396L0.137,-0.656ZM0.137,-0.344L0.29,-0.344C0.386,-0.344 0.434,-0.297 0.434,-0.197C0.434,-0.085 0.401,-0.048 0.279,-0.048L0.137,-0.048L0.137,-0.344Z" style="fill:rgb(242,242,242);fill-rule:nonzero;"/>
                        </g>
                    </g>
                    <g transform="matrix(0.99883,0.0483642,-0.0483642,0.99883,54.6588,-100.8)">
                        <g transform="matrix(64,0,0,64,2110.29,1079.09)">
                            <path d="M0.074,-0L0.137,-0L0.137,-0.334L0.432,-0.334L0.432,-0L0.495,-0L0.495,-0.703L0.432,-0.703L0.432,-0.391L0.137,-0.391L0.137,-0.703L0.074,-0.703L0.074,-0Z" style="fill:rgb(242,242,242);fill-rule:nonzero;"/>
                        </g>
                    </g>
                    <g transform="matrix(0.999539,0.0303687,-0.0303687,0.999539,33.8438,-65.2401)">
                        <g transform="matrix(64,0,0,64,2164.69,1081.55)">
                            <path d="M0.465,-0.226C0.465,-0.379 0.412,-0.463 0.28,-0.463C0.193,-0.463 0.145,-0.42 0.119,-0.379C0.129,-0.604 0.174,-0.662 0.262,-0.662C0.35,-0.662 0.382,-0.596 0.382,-0.524L0.445,-0.524C0.445,-0.616 0.402,-0.715 0.261,-0.715C0.113,-0.715 0.055,-0.618 0.055,-0.31C0.055,-0.079 0.111,0.011 0.261,0.011C0.412,0.011 0.465,-0.074 0.465,-0.226ZM0.267,-0.413C0.355,-0.413 0.4,-0.359 0.4,-0.227C0.4,-0.098 0.356,-0.041 0.261,-0.041C0.167,-0.041 0.12,-0.104 0.118,-0.293C0.133,-0.335 0.175,-0.413 0.267,-0.413Z" style="fill:rgb(242,242,242);fill-rule:nonzero;"/>
                        </g>
                    </g>
                    <g transform="matrix(0.99985,0.0173413,-0.0173413,0.99985,19.1052,-38.0018)">
                        <g transform="matrix(64,0,0,64,2200.79,1082.64)">
                            <path d="M0.475,-0.35C0.475,-0.615 0.422,-0.712 0.265,-0.712C0.108,-0.712 0.054,-0.615 0.054,-0.35C0.054,-0.085 0.108,0.011 0.265,0.011C0.422,0.011 0.475,-0.085 0.475,-0.35ZM0.118,-0.35C0.118,-0.585 0.158,-0.656 0.265,-0.656C0.371,-0.656 0.412,-0.585 0.412,-0.35C0.412,-0.115 0.371,-0.045 0.265,-0.045C0.158,-0.045 0.118,-0.115 0.118,-0.35Z" style="fill:rgb(242,242,242);fill-rule:nonzero;"/>
                        </g>
                    </g>
                    <g transform="matrix(0.999975,0.0070381,-0.0070381,0.999975,7.67916,-15.7227)">
                        <g transform="matrix(64,0,0,64,2237.76,1083.21)">
                            <path d="M0.121,-0L0.182,-0L0.182,-0.705L0.141,-0.705L0.016,-0.635L0.016,-0.575L0.121,-0.633L0.121,-0Z" style="fill:rgb(242,242,242);fill-rule:nonzero;"/>
                        </g>
                    </g>
                    <g transform="matrix(0.999998,-0.00175219,0.00175219,0.999998,-1.89472,3.95974)">
                        <g transform="matrix(64,0,0,64,2258.93,1083.32)">
                            <path d="M0.121,-0L0.182,-0L0.182,-0.705L0.141,-0.705L0.016,-0.635L0.016,-0.575L0.121,-0.633L0.121,-0Z" style="fill:rgb(242,242,242);fill-rule:nonzero;"/>
                        </g>
                    </g>
                    <g transform="matrix(0.999903,-0.0139564,0.0139564,0.999903,-14.8965,31.9307)">
                        <g transform="matrix(64,0,0,64,2280.33,1083.27)">
                            <path d="M0.047,0.04L0.103,0.04L0.349,-0.788L0.293,-0.788L0.047,0.04Z" style="fill:rgb(242,242,242);fill-rule:nonzero;"/>
                        </g>
                    </g>
                    <g transform="matrix(0.999623,-0.0274669,0.0274669,0.999623,-28.8725,63.8024)">
                        <g transform="matrix(64,0,0,64,2308.01,1082.88)">
                            <path d="M0.224,-0.446L0.401,-0.645L0.401,-0.699L0.049,-0.699L0.049,-0.642L0.322,-0.644L0.134,-0.437L0.134,-0.392C0.134,-0.392 0.166,-0.401 0.203,-0.401C0.293,-0.401 0.348,-0.35 0.348,-0.225C0.348,-0.1 0.304,-0.044 0.213,-0.044C0.127,-0.044 0.083,-0.096 0.083,-0.187L0.022,-0.187C0.022,-0.07 0.075,0.011 0.214,0.011C0.359,0.011 0.413,-0.074 0.413,-0.222C0.413,-0.369 0.354,-0.439 0.224,-0.446Z" style="fill:rgb(242,242,242);fill-rule:nonzero;"/>
                        </g>
                    </g>
                    <g transform="matrix(0.998985,-0.0450511,0.0450511,0.998985,-46.3676,106.543)">
                        <g transform="matrix(64,0,0,64,2340.54,1081.97)">
                            <path d="M0.475,-0.35C0.475,-0.615 0.422,-0.712 0.265,-0.712C0.108,-0.712 0.054,-0.615 0.054,-0.35C0.054,-0.085 0.108,0.011 0.265,0.011C0.422,0.011 0.475,-0.085 0.475,-0.35ZM0.118,-0.35C0.118,-0.585 0.158,-0.656 0.265,-0.656C0.371,-0.656 0.412,-0.585 0.412,-0.35C0.412,-0.115 0.371,-0.045 0.265,-0.045C0.158,-0.045 0.118,-0.115 0.118,-0.35Z" style="fill:rgb(242,242,242);fill-rule:nonzero;"/>
                        </g>
                    </g>
                    <g transform="matrix(0.998276,-0.058697,0.058697,0.998276,-59.3062,141.414)">
                        <g transform="matrix(64,0,0,64,2377.49,1080.21)">
                            <path d="M0.121,-0L0.182,-0L0.182,-0.705L0.141,-0.705L0.016,-0.635L0.016,-0.575L0.121,-0.633L0.121,-0Z" style="fill:rgb(242,242,242);fill-rule:nonzero;"/>
                        </g>
                    </g>
                    <g transform="matrix(0.99755,-0.069953,0.069953,0.99755,-69.5978,170.436)">
                        <g transform="matrix(64,0,0,64,2398.65,1078.92)">
                            <path d="M0.121,-0L0.182,-0L0.182,-0.705L0.141,-0.705L0.016,-0.635L0.016,-0.575L0.121,-0.633L0.121,-0Z" style="fill:rgb(242,242,242);fill-rule:nonzero;"/>
                        </g>
                    </g>
                </g>
            </g>
        </g>
        <g>
            <g transform="matrix(0.533227,0,-0.747031,0.361678,2918.51,1132.65)">
                <g id="Anteater1" transform="matrix(-3.46625,-0.736774,-0.736774,3.46625,3498.67,1459.5)">
                    <g id="AE1">
                        <g id="aebody1">
                            <path d="M83.308,32.059C83.056,32.69 82.619,33.231 82.055,33.61C81.473,33.927 80.849,34.162 80.202,34.308L78.944,33.994C77.442,33.602 75.91,33.34 74.364,33.209C72.836,32.911 71.267,32.88 69.729,33.118C68.992,33.175 67.872,33.337 66.748,33.553C65.625,33.769 64.528,33.976 63.851,34.162L59.881,34.766C52.881,36.604 59.25,24.04 58.23,31.34C57.23,38.4 59.49,51.73 59.65,52.65C65.001,64.336 62.066,78.242 52.45,86.77C42.834,95.298 52.96,93.24 52.45,96.13C51.94,99.02 48.36,100.13 48.36,100.13C45.478,100.65 42.506,99.922 40.19,98.13C38.649,97.034 37.355,95.627 36.39,94C35.004,94.171 33.606,94.231 32.21,94.18C31.225,95.743 29.949,97.101 28.45,98.18C25.51,100.1 24.36,99.72 22.19,100.39C20.02,101.06 18.36,100.48 16.45,98.44C14.54,96.4 14.66,94.74 14.27,91.44C14.131,90.14 14.205,88.826 14.49,87.55C4.668,79.546 1.124,66.022 5.76,54.23L5.76,54.11C6,53.76 6.5,52.62 7.26,51C10,45 15.79,32.59 18.06,27.77C19.26,25.22 20.501,16.098 22.284,14.435C24.851,12.039 25.049,11.857 25.229,11.666C26.048,10.774 26.999,10.014 28.049,9.412C28.99,8.963 29.977,8.618 30.992,8.383L32.311,7.806C31.673,6.198 31.858,4.377 32.805,2.931C34.073,1.598 35.646,0.593 37.389,0.003C38.519,-0.043 40.714,0.398 41.495,1.338C42.56,2.807 43.302,4.485 43.672,6.261C44.622,6.283 45.565,6.433 46.475,6.705C48.687,7.365 52.47,8.589 57.296,10.412C59.448,11.243 61.412,11.795 63.078,12.46C70.603,15.453 73.043,17.952 73.043,17.952L80.478,24.051C80.481,24.053 80.484,24.054 80.487,24.056C83.456,25.477 84.729,29.09 83.308,32.059C83.308,32.059 83.308,32.059 83.308,32.059Z" style="fill:rgb(0,130,30);fill-rule:nonzero;"/>
                        </g>
                        <g id="stripes">
                            <path d="M17.51,28.8C17.51,28.8 31.51,41.07 37.17,43.8C42.83,46.53 48.17,48.47 51.98,48.62C54.456,48.697 56.934,48.573 59.39,48.25C59.394,49.482 59.6,50.705 60,51.87C60.825,54.022 61.53,56.219 62.11,58.45C62.28,59.37 62.58,61.99 62.58,61.99C62.58,61.99 42.74,58.45 38.44,56.31C34.62,54.43 23.76,42.73 22,40C20.24,37.27 16.33,31.34 16.33,31.34L17.51,28.8Z" style="fill:rgb(0,130,30);fill-rule:nonzero;"/>
                            <path d="M18.29,27C18.29,27 30.52,36.72 36,39.54C41.23,42.22 44.68,43.82 48.68,44.22C52.68,44.62 59,45.39 59,45.39L59.29,47.64C59.29,47.64 50.13,47.25 45.4,46C40.67,44.75 25,34.23 22.17,32C20.683,30.816 19.109,29.746 17.46,28.8L18.29,27Z" style="fill:rgb(0,130,30);fill-rule:nonzero;"/>
                            <path d="M15.88,32.29C17.939,36.42 20.517,40.272 23.55,43.75C28.83,49.91 34.79,55.57 36.66,56.31C38.53,57.05 42.28,59.31 46.53,60.37C49.503,61.15 52.532,61.695 55.59,62C58.83,62.35 60.21,62.67 61.47,62.67L62.61,62.67L62.53,66.26C62.53,66.26 47.53,65.12 42.79,62.67C38.05,60.22 30.36,55.36 28.06,52.67C25.76,49.98 22.61,46.05 21,43.75C19.39,41.45 16.59,35.75 15.88,34.75C15.17,33.75 15.31,33.46 15.31,33.46L15.88,32.29Z" style="fill:rgb(0,130,30);fill-rule:nonzero;"/>
                        </g>
                        <g transform="matrix(0.898871,-0.438214,0.438214,0.898871,-19.49,9.04)">
                            <g id="aehand1">
                                <ellipse cx="9.84" cy="46.74" rx="10.3" ry="7.55" style="fill:rgb(0,130,30);"/>
                            </g>
                        </g>
                    </g>
                    <g id="ae1_2_buttshadow">
                        <path d="M3.77,65.33C3.77,65.33 3.69,70.82 5.29,74.33C6.397,76.843 7.666,79.282 9.09,81.63C10.36,83.27 11.722,84.836 13.17,86.32C13.843,86.972 14.554,87.583 15.3,88.15C17.091,89.607 19.064,90.824 21.17,91.77C23.084,92.382 25.03,92.886 27,93.28C28.97,93.674 31.51,94.28 31.77,94.18C32.03,94.08 36.18,94.12 36.43,93.95C36.68,93.78 44.26,88.43 44.26,88.43L35.89,89.58L31.89,89.58C30.223,89.402 28.583,89.033 27,88.48C24.58,87.65 19.66,85.74 17.46,83.96C15.11,82.06 10.86,78.16 9.84,76.48C7.33,72.37 3.77,65.33 3.77,65.33Z" style="fill:rgb(0,130,30);fill-rule:nonzero;"/>
                    </g>
                    <g id="aeLegShadow">
                        <path d="M14.49,87.46C14.49,87.46 13.8,87.57 14.27,91.35C14.48,92.435 14.607,93.535 14.65,94.64C14.847,95.661 15.222,96.64 15.76,97.53C16.533,98.472 17.431,99.303 18.43,100C18.985,100.23 19.557,100.417 20.14,100.56C20.829,100.536 21.514,100.455 22.19,100.32C22.83,100.15 22.19,100.43 21.51,99.45C21.014,98.907 20.618,98.281 20.34,97.6C19.682,96.433 19.149,95.199 18.75,93.92C18.83,92.767 19.007,91.623 19.28,90.5L14.49,87.46Z" style="fill:rgb(0,130,30);fill-rule:nonzero;"/>
                    </g>
                    <g id="aeEye" transform="matrix(1,0,0,1,-2.64329,6.26263)">
                        <circle cx="42.39" cy="11.48" r="2.2" style="fill:rgb(0,130,30);"/>
                    </g>
                </g>
                <g transform="matrix(0.993623,-0.048072,0.0262725,0.994677,-30.4648,224.293)">
                    <g transform="matrix(0.611153,0,0.0054966,0.0397324,1402.3,1561.43)">
                        <rect x="3016.36" y="1407.03" width="242.779" height="182.528" style="fill:rgb(0,130,30);"/>
                    </g>
                    <g transform="matrix(1.03081,0,0.131936,0.953703,-305.504,108.62)">
                        <rect x="3016.36" y="1407.03" width="242.779" height="182.528" style="fill:rgb(0,130,30);"/>
                    </g>
                </g>
            </g>
            <g>
                <g id="Anteater11" serif:id="Anteater1" transform="matrix(-3.46625,-0.736774,-0.736774,3.46625,3498.67,1459.5)">
                    <g id="AE11" serif:id="AE1">
                        <g id="aebody11" serif:id="aebody1">
                            <path d="M83.308,32.059C83.056,32.69 82.619,33.231 82.055,33.61C81.473,33.927 80.849,34.162 80.202,34.308L78.944,33.994C77.442,33.602 75.91,33.34 74.364,33.209C72.836,32.911 71.267,32.88 69.729,33.118C68.992,33.175 67.872,33.337 66.748,33.553C65.625,33.769 64.528,33.976 63.851,34.162L59.881,34.766C52.881,36.604 59.25,24.04 58.23,31.34C57.23,38.4 59.49,51.73 59.65,52.65C65.001,64.336 62.066,78.242 52.45,86.77C42.834,95.298 52.96,93.24 52.45,96.13C51.94,99.02 48.36,100.13 48.36,100.13C45.478,100.65 42.506,99.922 40.19,98.13C38.649,97.034 37.355,95.627 36.39,94C35.004,94.171 33.606,94.231 32.21,94.18C31.225,95.743 29.949,97.101 28.45,98.18C25.51,100.1 24.36,99.72 22.19,100.39C20.02,101.06 18.36,100.48 16.45,98.44C14.54,96.4 14.66,94.74 14.27,91.44C14.131,90.14 14.205,88.826 14.49,87.55C4.668,79.546 1.124,66.022 5.76,54.23L5.76,54.11C6,53.76 6.5,52.62 7.26,51C10,45 15.79,32.59 18.06,27.77C19.26,25.22 20.501,16.098 22.284,14.435C24.851,12.039 25.049,11.857 25.229,11.666C26.048,10.774 26.999,10.014 28.049,9.412C28.99,8.963 29.977,8.618 30.992,8.383L32.311,7.806C31.673,6.198 31.858,4.377 32.805,2.931C34.073,1.598 35.646,0.593 37.389,0.003C38.519,-0.043 40.714,0.398 41.495,1.338C42.56,2.807 43.302,4.485 43.672,6.261C44.622,6.283 45.565,6.433 46.475,6.705C48.687,7.365 52.47,8.589 57.296,10.412C59.448,11.243 61.412,11.795 63.078,12.46C70.603,15.453 73.043,17.952 73.043,17.952L80.478,24.051C80.481,24.053 80.484,24.054 80.487,24.056C83.456,25.477 84.729,29.09 83.308,32.059C83.308,32.059 83.308,32.059 83.308,32.059Z" style="fill:rgb(167,169,172);fill-rule:nonzero;"/>
                        </g>
                        <g id="stripes1" serif:id="stripes">
                            <path d="M17.51,28.8C17.51,28.8 31.51,41.07 37.17,43.8C42.83,46.53 48.17,48.47 51.98,48.62C54.456,48.697 56.934,48.573 59.39,48.25C59.394,49.482 59.6,50.705 60,51.87C60.825,54.022 61.53,56.219 62.11,58.45C62.28,59.37 62.58,61.99 62.58,61.99C62.58,61.99 42.74,58.45 38.44,56.31C34.62,54.43 23.76,42.73 22,40C20.24,37.27 16.33,31.34 16.33,31.34L17.51,28.8Z" style="fill:rgb(35,31,32);fill-rule:nonzero;"/>
                            <path d="M18.29,27C18.29,27 30.52,36.72 36,39.54C41.23,42.22 44.68,43.82 48.68,44.22C52.68,44.62 59,45.39 59,45.39L59.29,47.64C59.29,47.64 50.13,47.25 45.4,46C40.67,44.75 25,34.23 22.17,32C20.683,30.816 19.109,29.746 17.46,28.8L18.29,27Z" style="fill:white;fill-rule:nonzero;"/>
                            <path d="M15.88,32.29C17.939,36.42 20.517,40.272 23.55,43.75C28.83,49.91 34.79,55.57 36.66,56.31C38.53,57.05 42.28,59.31 46.53,60.37C49.503,61.15 52.532,61.695 55.59,62C58.83,62.35 60.21,62.67 61.47,62.67L62.61,62.67L62.53,66.26C62.53,66.26 47.53,65.12 42.79,62.67C38.05,60.22 30.36,55.36 28.06,52.67C25.76,49.98 22.61,46.05 21,43.75C19.39,41.45 16.59,35.75 15.88,34.75C15.17,33.75 15.31,33.46 15.31,33.46L15.88,32.29Z" style="fill:white;fill-rule:nonzero;"/>
                        </g>
                        <g transform="matrix(0.898871,-0.438214,0.438214,0.898871,-19.49,9.04)">
                            <g id="aehand11" serif:id="aehand1">
                                <ellipse cx="9.84" cy="46.74" rx="10.3" ry="7.55" style="fill:rgb(188,190,192);"/>
                            </g>
                        </g>
                    </g>
                    <g id="ae1_2_buttshadow1" serif:id="ae1_2_buttshadow">
                        <path d="M3.77,65.33C3.77,65.33 3.69,70.82 5.29,74.33C6.397,76.843 7.666,79.282 9.09,81.63C10.36,83.27 11.722,84.836 13.17,86.32C13.843,86.972 14.554,87.583 15.3,88.15C17.091,89.607 19.064,90.824 21.17,91.77C23.084,92.382 25.03,92.886 27,93.28C28.97,93.674 31.51,94.28 31.77,94.18C32.03,94.08 36.18,94.12 36.43,93.95C36.68,93.78 44.26,88.43 44.26,88.43L35.89,89.58L31.89,89.58C30.223,89.402 28.583,89.033 27,88.48C24.58,87.65 19.66,85.74 17.46,83.96C15.11,82.06 10.86,78.16 9.84,76.48C7.33,72.37 3.77,65.33 3.77,65.33Z" style="fill:rgb(147,149,152);fill-rule:nonzero;"/>
                    </g>
                    <g id="aeLegShadow1" serif:id="aeLegShadow">
                        <path d="M14.49,87.46C14.49,87.46 13.8,87.57 14.27,91.35C14.48,92.435 14.607,93.535 14.65,94.64C14.847,95.661 15.222,96.64 15.76,97.53C16.533,98.472 17.431,99.303 18.43,100C18.985,100.23 19.557,100.417 20.14,100.56C20.829,100.536 21.514,100.455 22.19,100.32C22.83,100.15 22.19,100.43 21.51,99.45C21.014,98.907 20.618,98.281 20.34,97.6C19.682,96.433 19.149,95.199 18.75,93.92C18.83,92.767 19.007,91.623 19.28,90.5L14.49,87.46Z" style="fill:rgb(147,149,152);fill-rule:nonzero;"/>
                    </g>
                    <g id="aeEye1" serif:id="aeEye" transform="matrix(1,0,0,1,-2.64329,6.26263)">
                        <circle cx="42.39" cy="11.48" r="2.2" style="fill:rgb(35,31,32);"/>
                    </g>
                </g>
                <g transform="matrix(0.993623,-0.048072,0.0262725,0.994677,-30.4648,224.293)">
                    <g transform="matrix(0.597423,-0.11635,0.012941,0.0381253,1441.16,1914.94)">
                        <rect x="3016.36" y="1407.03" width="242.779" height="182.528" style="fill:rgb(94,83,65);"/>
                    </g>
                    <g transform="matrix(1.03081,0,0.131936,0.953703,-305.504,108.62)">
                        <rect x="3016.36" y="1407.03" width="242.779" height="182.528" style="fill:rgb(94,83,65);"/>
                    </g>
                    <g transform="matrix(1.09119,-0.000574336,0.150769,1.09113,3030.96,1449.22)">
                        <path d="M132.49,73.61C132.35,74.13 119.35,98 119.02,98.57C118.76,99.02 117.6,100.85 117.29,101.09C116.97,101.33 115.96,101.87 115.44,101.91C114.92,101.94 99.91,101.79 99.91,101.79C99.91,101.79 99.35,102.82 99.42,102.92C99.49,103.02 99.66,103.2 99.66,103.2C99.66,103.2 112.56,103.23 113.15,103.37C113.74,103.51 114.79,103.44 115.38,104.28C115.97,105.11 116.25,104.9 116.49,106.93C116.74,108.95 116.68,111.1 116.56,112.43C116.43,113.93 116.12,114.99 115.86,115.73C115.32,117.24 114.58,118.36 113.71,118.98C112.83,119.61 109.42,120.52 107.89,120.93C106.35,121.35 102.52,122.33 99.24,122.33C95.96,122.33 94.3,122.19 91.51,121.91C88.72,121.63 87.3,121.54 86.21,121.21C85.02,120.85 82.89,120.25 81.73,120.53C80.58,120.81 80.08,121.21 78.82,121.56C77.57,121.91 75.13,122.02 74.01,121.98C73.22,121.95 70.41,122.01 68.03,121.43C65.79,120.89 63.97,119.7 63.56,119.47C61.89,118.49 60.69,117.57 59.33,116.28C58.51,115.5 58.32,115.55 57.65,114.95C57.4,114.72 57.02,115.86 56.2,117.03C55.19,118.48 54.18,119.23 53.37,119.89C51.39,121.51 49.02,122.29 47.34,122.33C45.67,122.36 43.1,122.01 41.71,121.34C40.61,120.82 38.17,118.97 36.95,117.81C35.08,116.04 31.95,112 31.17,110.57C28.6,105.8 27.16,102.39 26.81,100.02C25.78,93.21 26,89.53 26.31,86.57C26.73,82.53 28.34,77.4 28.99,75.56C29.87,73.1 32,70.02 32.6,69.03C33.2,68.03 34.13,66.82 34.53,66.27C34.73,65.99 35.82,64.79 36.17,64.37C36.28,64.24 36.85,63.64 36.85,63.64C36.85,63.64 37.89,62.64 38,62.55C38.28,62.29 39.08,61.61 39.52,61.35C40.73,60.64 41.36,61.45 41.47,61.83C41.53,62.08 41.62,62.23 41.51,63.07C41.35,64.28 41.24,64.74 41.19,65.46C41.17,65.71 41.12,66.18 41.1,66.57C41.08,66.96 41.1,68.43 41.1,68.7C41.11,69.09 41.23,70.21 41.29,70.61C41.35,71.01 41.44,71.88 41.52,72.35C41.61,72.88 41.73,73.75 41.8,74.07C41.84,74.24 42.03,75.14 42.05,75.24C42.11,75.45 42.21,75.78 42.43,76.47C42.51,76.72 42.68,77.18 42.78,77.37C42.97,77.76 43.38,78.54 43.51,78.54C43.72,78.54 43.9,77.51 43.94,77.11C43.96,76.94 43.97,76.72 43.94,76.44C43.87,75.81 43.72,75.54 43.64,75.14C43.59,74.88 43.46,74.63 43.45,74.2C43.45,73.96 43.5,73.773 43.6,73.64C43.7,73.51 44.08,73.53 44.23,73.59C44.42,73.67 44.57,73.7 44.93,73.96C46.81,75.32 47.3,76.21 47.3,76.21C48.24,77.56 48.83,78.58 49.48,80.16C49.71,80.72 50.22,82.07 50.97,84.77C50.99,84.86 51.4,86.48 51.59,87.2C51.67,87.5 51.86,88.81 51.9,89.06C51.94,89.31 52.03,90.17 52.05,90.3C52.1,90.64 52.37,93.33 52.37,93.33C52.37,93.33 53.96,82.75 55.84,77C57.72,71.25 63.05,61.53 63.78,59.96C64.52,58.39 67.01,54.38 67.91,52.94C69.18,50.92 70.79,48.76 71.62,47.21C72.84,44.94 73.51,44.59 73.61,43.23C73.72,41.88 73.92,39.68 74.55,38.84C75.18,38.01 76.3,36.96 77.53,36.69C78.63,36.45 79.91,36.37 81.03,36.89C82.15,37.41 82.49,37.81 82.98,38.41C83.47,39.01 83.54,39.75 84.1,40.31C84.66,40.87 87.45,41.98 89.4,42.89L91.35,43.79C91.35,43.79 94.96,45.42 96.18,46.34C97.66,47.46 100.13,49.72 101.45,51.11C102.78,52.5 106.68,56.96 108.21,60.38C109.75,63.79 110.14,64.43 110.79,66.65C111.64,69.53 111.88,71.03 111.49,72.44C111.49,72.48 111.46,72.53 111.44,72.6C111.33,72.96 110.89,74.33 109.55,75.12C109.33,75.25 108.81,75.55 108.08,75.62C107.61,75.66 107.26,75.6 106.88,75.52C105.89,75.32 105.17,74.95 104.96,74.8C104.23,74.26 103.52,73.51 103.08,73.16C102.94,73.09 100.64,71.49 99.63,71.07C98.62,70.65 97.23,69.81 96.18,69.5C95.14,69.19 93.5,68.52 93.05,68.52C92.6,68.52 91.72,68.11 90.96,68.14C90.19,68.18 89.67,68.21 89.32,68.73C88.97,69.26 88.62,69.46 88.79,70.23C88.97,71 89.07,72.11 89.53,73.16C90.21,74.72 90.49,75.52 91.02,76.47C92.73,79.52 93.64,79.87 95.36,82.6C97.13,85.41 97.96,87.89 98.41,89.26C98.78,90.4 99.34,92.05 99.49,93.86L99.67,96.02C99.67,96.02 99.49,96.19 99.91,96.4L100.33,96.61L106.57,97.38L113.51,97.87L114.18,97.51L127.93,72.46C127.93,72.46 127.96,72.32 128.21,72.29C128.45,72.25 128.28,72.25 128.45,72.25C128.62,72.25 132.46,72.32 132.67,72.5C132.88,72.67 132.6,73.09 132.46,73.61L132.49,73.61Z" style="fill:rgb(62,54,43);fill-rule:nonzero;"/>
                    </g>
                </g>
            </g>
        </g>
    </g>
    <defs>
        <linearGradient id="_Linear1" x1="0" y1="0" x2="1" y2="0" gradientUnits="userSpaceOnUse" gradientTransform="matrix(1.32262e-13,2160,-2160,1.32262e-13,1942.15,0)"><stop offset="0" style="stop-color:rgb(148,230,255);stop-opacity:1"/><stop offset="1" style="stop-color:rgb(174,236,255);stop-opacity:1"/></linearGradient>
    </defs>
</svg>
